<?xml version="1.0" encoding="UTF-8"?>
<!DOCTYPE svg PUBLIC "-//W3C//DTD SVG 1.1//EN" "http://www.w3.org/Graphics/SVG/1.1/DTD/svg11.dtd">
<!-- Creator: CorelDRAW -->
<svg xmlns="http://www.w3.org/2000/svg" xml:space="preserve" width="210mm" height="297mm" version="1.1" style="shape-rendering:geometricPrecision; text-rendering:geometricPrecision; image-rendering:optimizeQuality; fill-rule:evenodd; clip-rule:evenodd"
viewBox="0 0 21000 29700"
 xmlns:xlink="http://www.w3.org/1999/xlink"
 xmlns:xodm="http://www.corel.com/coreldraw/odm/2003"
 role="img">
 <defs>
  <style type="text/css">
   <![CDATA[
    .fil0 {fill:url(#id0);fill-rule:nonzero}
   ]]>
  </style>
  <linearGradient id="id0" gradientUnits="userSpaceOnUse" x1="365.5" y1="4462.82" x2="21046.29" y2="4462.78">
   <stop offset="0" style="stop-opacity:1; stop-color:#0051FF"/>
   <stop offset="1" style="stop-opacity:1; stop-color:#56FC56"/>
  </linearGradient>
 </defs>
 <g id="Camada_x0020_1">
  <metadata id="CorelCorpID_0Corel-Layer"/>
  <path class="fil0" d="M20619.43 4406.9l-5639.15 543.27c-358.07,34.4 -744.36,337.78 -862.54,677.33l-3608.92 10361.97 -3626.56 -10362.85c-118.18,-338.66 -505.35,-642.05 -862.54,-676.45l-5639.15 -543.27c-357.19,-34.4 -548.57,211.66 -427.74,550.33l7094.36 19726.45c121.71,337.78 512.41,612.95 871.36,612.95l5488.34 0 34.39 0c64.38,0 118.18,-17.64 157.87,-48.51 109.36,-54.68 203.73,-149.05 242.53,-257.53l34.4 -95.25 7170.21 -19938.12c121.71,-338.66 -69.67,-584.72 -426.86,-550.32z"/>
 </g>
</svg>
